<svg xmlns="http://www.w3.org/2000/svg" viewBox="0 0 193.81 68.43">
    <defs>
        <style>
            .cls-1 {
                fill: #33655B;
            }

            .cls-2 {
                fill: #44A08C;
            }

            .cls-3 {
                fill: #112244;
            }

            .cls-4 {
                fill: #621C31;
            }

            .cls-5 {
                fill: #82330E;
            }

            .cls-6 {
                fill: #062B6A;
            }

            .cls-7 {
                fill: #AE002D;
            }
        </style>
    </defs>
    <title>logo_taptoe_1</title>
    <g id="Laag_2" data-name="Laag 2">
        <g id="Laag_1-2" data-name="Laag 1">
            <path class="cls-1"
                d="M145.75,44.79h-9.4a23.63,23.63,0,0,0-23.64,23.64h57.46a23.64,23.64,0,0,0,23.64-23.64Z" />
            <path class="cls-2"
                d="M136.35,44.79h9.4L111.16,4.27A12.12,12.12,0,0,0,101.81,0V34.55A33.81,33.81,0,0,1,67.93,68.43h44.78A23.63,23.63,0,0,1,136.35,44.79Z" />
            <path class="cls-3" d="M100.24,44.79H58.06l-7.68,9-2.5,2.93-10,11.71H67.93a33.8,33.8,0,0,0,32.31-23.64Z" />
            <path class="cls-4" d="M69.39,31.52,88.73,8.86A29.54,29.54,0,0,0,40.24,31.52H69.39Z" />
            <path class="cls-5"
                d="M58.06,44.79h42.18a34,34,0,0,0,1.57-10.24V0a12.15,12.15,0,0,0-9.16,4.27L88.73,8.86,69.39,31.52Z" />
            <path class="cls-6"
                d="M50.38,53.79l7.68-9H39.17a23.67,23.67,0,0,0-22.81,17.4,36.16,36.16,0,0,0,7,3.68,36.82,36.82,0,0,0,13.52,2.56h1l10-11.71Z" />
            <path class="cls-7"
                d="M23.39,50.83a23.52,23.52,0,0,1,15.78-6H58.06L69.39,31.52H0A37,37,0,0,0,16.36,62.19,23.65,23.65,0,0,1,23.39,50.83Z" />
        </g>
    </g>
</svg>