<svg xmlns="http://www.w3.org/2000/svg" viewBox="0 0 193.81 127.46">
    <defs>
        <style>
            .cls-1 {
                fill: #222221;
            }

            .cls-2 {
                fill: #33655B;
            }

            .cls-3 {
                fill: #44A08C;
            }

            .cls-4 {
                fill: #112244;
            }

            .cls-5 {
                fill: #621C31;
            }

            .cls-6 {
                fill: #82330E;
            }

            .cls-7 {
                fill: #062B6A;
            }

            .cls-8 {
                fill: #AE002D;
            }
        </style>
    </defs>
    <g id="Laag_2" data-name="Laag 2">
        <g id="Laag_1-2" data-name="Laag 1">
            <path class="cls-1"
                d="M48,113.08a7,7,0,0,0,2.18-.36v4.76a12.81,12.81,0,0,1-3.33.47c-4.2,0-7.29-1.62-7.29-7.17v-8.39H36.73V97.75h2.85V91.89h5.75v5.86H50.2v4.64H45.33v8.08C45.33,112.29,46.16,113.08,48,113.08Z" />
            <path class="cls-1"
                d="M65.69,114.55c-1.27,2.41-3.57,3.4-6.3,3.4-3.29,0-6.5-1.74-6.5-5.66,0-8.4,12.6-4.63,12.6-8.52,0-1.38-1.35-2.21-3.13-2.21-2,0-3.21,1.07-3.21,3H53.49c0-5.19,4.43-7.21,9-7.21s8.71,1.82,8.71,6.57v13.63H65.69Zm-4.56-.84c2.38,0,4.44-1.38,4.44-4v-1c-2.73,1.22-6.93.87-6.93,3.16C58.64,113.08,59.75,113.71,61.13,113.71Z" />
            <path class="cls-1"
                d="M81.38,115.18v12.28H75.63V97.75H81.3v2.5a7.46,7.46,0,0,1,5.94-2.89c5.35,0,9.19,4.12,9.19,10.3S92.59,118,87.24,118A7.49,7.49,0,0,1,81.38,115.18Zm9.42-7.52c0-3.13-2-5.19-4.71-5.19s-4.71,2.06-4.71,5.19,2,5.18,4.71,5.18S90.8,110.78,90.8,107.66Z" />
            <path class="cls-1"
                d="M109.62,113.08a6.92,6.92,0,0,0,2.18-.36v4.76a12.81,12.81,0,0,1-3.33.47c-4.2,0-7.29-1.62-7.29-7.17v-8.39H98.33V97.75h2.85V91.89h5.75v5.86h4.87v4.64h-4.87v8.08C106.93,112.29,107.76,113.08,109.62,113.08Z" />
            <path class="cls-1"
                d="M114.06,107.66A10.3,10.3,0,1,1,124.36,118,9.93,9.93,0,0,1,114.06,107.66Zm15,0c0-3.13-2-5.19-4.71-5.19s-4.71,2.06-4.71,5.19,2,5.18,4.71,5.18S129.07,110.74,129.07,107.66Z" />
            <path class="cls-1"
                d="M157,109.24H142.54c.48,2.61,2.06,4,4.68,4,1.82,0,3-.63,3.56-1.94h5.82c-1.23,4.36-4.67,6.65-9.54,6.65-5.82,0-10-4.24-10-10.29s4.2-10.3,10-10.3,10,4.24,10,10.3C157.08,108.21,157,108.72,157,109.24Zm-14.42-3.37h8.95a4.53,4.53,0,0,0-8.95,0Z" />
            <path class="cls-2"
                d="M145.75,44.79h-9.4a23.63,23.63,0,0,0-23.64,23.64h57.46a23.64,23.64,0,0,0,23.64-23.64Z" />
            <path class="cls-3"
                d="M136.35,44.79h9.4L111.16,4.27A12.12,12.12,0,0,0,101.81,0V34.55A33.81,33.81,0,0,1,67.93,68.43h44.78A23.63,23.63,0,0,1,136.35,44.79Z" />
            <path class="cls-4" d="M100.24,44.79H58.06l-7.68,9-2.5,2.93-10,11.71H67.93a33.8,33.8,0,0,0,32.31-23.64Z" />
            <path class="cls-5" d="M69.39,31.52,88.73,8.86A29.54,29.54,0,0,0,40.24,31.52H69.39Z" />
            <path class="cls-6"
                d="M58.06,44.79h42.18a34,34,0,0,0,1.57-10.24V0a12.15,12.15,0,0,0-9.16,4.27L88.73,8.86,69.39,31.52Z" />
            <path class="cls-7"
                d="M50.38,53.79l7.68-9H39.17a23.67,23.67,0,0,0-22.81,17.4,36.16,36.16,0,0,0,7,3.68,36.82,36.82,0,0,0,13.52,2.56h1l10-11.71Z" />
            <path class="cls-8"
                d="M23.39,50.83a23.52,23.52,0,0,1,15.78-6H58.06L69.39,31.52H0A37,37,0,0,0,16.36,62.19,23.65,23.65,0,0,1,23.39,50.83Z" />
        </g>
    </g>
</svg>