<svg xmlns="http://www.w3.org/2000/svg" viewBox="0 0 90.78 26.83"><defs><style>.cls-1{fill:#222221;}</style></defs><title>logo_taptoe_text</title><g id="Laag_2" data-name="Laag 2"><g id="Laag_1-2" data-name="Laag 1"><path class="cls-1" d="M8.51,16a5.57,5.57,0,0,0,1.65-.26V19.3a9.75,9.75,0,0,1-2.51.36c-3.17,0-5.5-1.23-5.5-5.41V7.92H0V4.42H2.15V0H6.48V4.42h3.68v3.5H6.48V14C6.48,15.39,7.11,16,8.51,16Z"/><path class="cls-1" d="M21.84,17.09a5,5,0,0,1-4.75,2.57c-2.48,0-4.9-1.32-4.9-4.27,0-6.34,9.5-3.5,9.5-6.43,0-1-1-1.67-2.36-1.67a2.15,2.15,0,0,0-2.42,2.27H12.64c0-3.91,3.35-5.44,6.81-5.44S26,5.5,26,9.08V19.36H21.84Zm-3.43-.63a3,3,0,0,0,3.34-3v-.78c-2.06.92-5.23.66-5.23,2.39C16.52,16,17.36,16.46,18.41,16.46Z"/><path class="cls-1" d="M33.68,17.57v9.26H29.35V4.42h4.27V6.3A5.64,5.64,0,0,1,38.1,4.12c4,0,6.93,3.11,6.93,7.77s-2.9,7.77-6.93,7.77A5.66,5.66,0,0,1,33.68,17.57Zm7.11-5.68a3.57,3.57,0,1,0-7.11,0,3.57,3.57,0,1,0,7.11,0Z"/><path class="cls-1" d="M55,16a5.57,5.57,0,0,0,1.65-.26V19.3a9.75,9.75,0,0,1-2.51.36c-3.17,0-5.5-1.23-5.5-5.41V7.92H46.47V4.42h2.15V0H53V4.42h3.68v3.5H53V14C53,15.39,53.58,16,55,16Z"/><path class="cls-1" d="M58.33,11.89a7.77,7.77,0,0,1,15.54,0,7.77,7.77,0,0,1-15.54,0Zm11.33,0C69.66,9.53,68.16,8,66.1,8a3.58,3.58,0,0,0-3.55,3.91,3.57,3.57,0,1,0,7.11,0Z"/><path class="cls-1" d="M90.72,13.09H79.82a3.29,3.29,0,0,0,3.52,3A2.58,2.58,0,0,0,86,14.64h4.39c-.92,3.29-3.52,5-7.2,5-4.39,0-7.55-3.2-7.55-7.77s3.16-7.77,7.55-7.77a7.37,7.37,0,0,1,7.56,7.77C90.78,12.31,90.75,12.7,90.72,13.09ZM79.85,10.55H86.6a3.42,3.42,0,0,0-6.75,0Z"/></g></g></svg>